# xmcd CD database file
#
# Track frame offsets:
#	150
#	26936
#	47018
#	71151
#	94402
#	129679
#	158045
#	190490
#	227334
#	247177
#	268887
#	290407
#
# Disc length: 4219 seconds
#
# Revision: 0
# Processed by: cddbd v1.5.2PL0 Copyright (c) Steve Scherf et al.
# Submitted via: CDex 1.50Beta7
#
DISCID=b910790c
DTITLE=Miles Davis - Milestones
DYEAR=2007
DGENRE=Jazz
TTITLE0=Oleo
TTITLE1=Airegin
TTITLE2='Round midnight
TTITLE3=I could write a book
TTITLE4=Dear old Stockholm
TTITLE5=Well, you needn't
TTITLE6=Four
TTITLE7=If I were a bell
TTITLE8=When I fall in love
TTITLE9=You're my everything
TTITLE10=Half Nelson
TTITLE11=Tune up
EXTD=YEAR: 2007
EXTT0=
EXTT1=
EXTT2=
EXTT3=
EXTT4=
EXTT5=
EXTT6=
EXTT7=
EXTT8=
EXTT9=
EXTT10=
EXTT11=
PLAYORDER=
